<svg width="291" height="291" viewBox="0 0 291 291" fill="none" xmlns="http://www.w3.org/2000/svg">
<rect x="0.803711" y="0.835938" width="289.978" height="289.978" rx="144.989" fill="#809CBC"/>
<path d="M138.887 79.8151L102.363 93.495C95.3907 96.1513 89.6797 104.386 89.6797 111.89V165.68C89.6797 171.059 93.1993 178.164 97.5157 181.352L134.04 208.645C140.481 213.493 151.04 213.493 157.482 208.645L194.006 181.352C198.322 178.098 201.842 171.059 201.842 165.68V111.89C201.842 104.452 196.131 96.1513 189.158 93.5614L152.634 79.8815C148.915 78.4205 142.673 78.4205 138.887 79.8151Z" fill="white"/>
<path d="M136.896 160.632C135.634 160.632 134.372 160.168 133.376 159.171L122.685 148.48C120.759 146.554 120.759 143.367 122.685 141.441C124.61 139.515 127.798 139.515 129.724 141.441L136.896 148.613L161.931 123.577C163.857 121.651 167.045 121.651 168.97 123.577C170.896 125.503 170.896 128.691 168.97 130.616L140.415 159.171C139.419 160.168 138.157 160.632 136.896 160.632Z" fill="#809CBC"/>
</svg>
