<svg width="26" height="23" viewBox="0 0 26 23" fill="none" xmlns="http://www.w3.org/2000/svg">
<path fill-rule="evenodd" clip-rule="evenodd" d="M8.75 0.167969C7.24711 0.167969 5.80577 0.764991 4.74306 1.8277C3.68036 2.8904 3.08333 4.33174 3.08333 5.83464C3.08333 7.33753 3.68036 8.77887 4.74306 9.84157C5.80577 10.9043 7.24711 11.5013 8.75 11.5013C10.2529 11.5013 11.6942 10.9043 12.7569 9.84157C13.8196 8.77887 14.4167 7.33753 14.4167 5.83464C14.4167 4.33174 13.8196 2.8904 12.7569 1.8277C11.6942 0.764991 10.2529 0.167969 8.75 0.167969ZM5.91667 12.918C4.41377 12.918 2.97243 13.515 1.90973 14.5777C0.847022 15.6404 0.25 17.0817 0.25 18.5846V20.0013C0.25 20.7527 0.548511 21.4734 1.07986 22.0048C1.61122 22.5361 2.33189 22.8346 3.08333 22.8346H14.4167C15.1681 22.8346 15.8888 22.5361 16.4201 22.0048C16.9515 21.4734 17.25 20.7527 17.25 20.0013V18.5846C17.25 17.0817 16.653 15.6404 15.5903 14.5777C14.5276 13.515 13.0862 12.918 11.5833 12.918H5.91667ZM17.25 11.5013C17.25 11.1256 17.3993 10.7652 17.6649 10.4996C17.9306 10.2339 18.2909 10.0846 18.6667 10.0846H20.0833V8.66797C20.0833 8.29224 20.2326 7.93191 20.4983 7.66623C20.7639 7.40056 21.1243 7.2513 21.5 7.2513C21.8757 7.2513 22.2361 7.40056 22.5017 7.66623C22.7674 7.93191 22.9167 8.29224 22.9167 8.66797V10.0846H24.3333C24.7091 10.0846 25.0694 10.2339 25.3351 10.4996C25.6007 10.7652 25.75 11.1256 25.75 11.5013C25.75 11.877 25.6007 12.2374 25.3351 12.503C25.0694 12.7687 24.7091 12.918 24.3333 12.918H22.9167V14.3346C22.9167 14.7104 22.7674 15.0707 22.5017 15.3364C22.2361 15.602 21.8757 15.7513 21.5 15.7513C21.1243 15.7513 20.7639 15.602 20.4983 15.3364C20.2326 15.0707 20.0833 14.7104 20.0833 14.3346V12.918H18.6667C18.2909 12.918 17.9306 12.7687 17.6649 12.503C17.3993 12.2374 17.25 11.877 17.25 11.5013Z" fill="white"/>
</svg>
