<svg width="34" height="34" viewBox="0 0 34 34" fill="none" xmlns="http://www.w3.org/2000/svg">
<path fill-rule="evenodd" clip-rule="evenodd" d="M1.98828 17.0004C1.98828 13.0189 3.56991 9.20055 6.38523 6.38523C9.20055 3.56991 13.0189 1.98828 17.0004 1.98828C20.9819 1.98828 24.8003 3.56991 27.6156 6.38523C30.4309 9.20055 32.0125 13.0189 32.0125 17.0004C32.0125 20.9819 30.4309 24.8003 27.6156 27.6156C24.8003 30.4309 20.9819 32.0125 17.0004 32.0125C13.0189 32.0125 9.20055 30.4309 6.38523 27.6156C3.56991 24.8003 1.98828 20.9819 1.98828 17.0004ZM17.0004 4.14161C13.59 4.14161 10.3194 5.49638 7.90787 7.90787C5.49638 10.3194 4.14161 13.59 4.14161 17.0004C4.14161 20.4108 5.49638 23.6815 7.90787 26.093C10.3194 28.5045 13.59 29.8592 17.0004 29.8592C20.4108 29.8592 23.6815 28.5045 26.093 26.093C28.5045 23.6815 29.8592 20.4108 29.8592 17.0004C29.8592 13.59 28.5045 10.3194 26.093 7.90787C23.6815 5.49638 20.4108 4.14161 17.0004 4.14161ZM22.3361 11.6669C22.5486 11.8795 22.668 12.1677 22.668 12.4682C22.668 12.7687 22.5486 13.057 22.3361 13.2695L18.6029 17.0004L22.3361 20.7313C22.549 20.9442 22.6685 21.2328 22.6685 21.5337C22.6685 21.8347 22.549 22.1233 22.3361 22.3361C22.1233 22.549 21.8347 22.6685 21.5337 22.6685C21.2328 22.6685 20.9442 22.549 20.7313 22.3361L17.0004 18.6029L13.2695 22.3361C13.1641 22.4415 13.039 22.5251 12.9013 22.5821C12.7637 22.6392 12.6161 22.6685 12.4671 22.6685C12.3181 22.6685 12.1705 22.6392 12.0328 22.5821C11.8951 22.5251 11.7701 22.4415 11.6647 22.3361C11.5593 22.2308 11.4757 22.1057 11.4187 21.968C11.3617 21.8303 11.3323 21.6828 11.3323 21.5337C11.3323 21.3847 11.3617 21.2372 11.4187 21.0995C11.4757 20.9618 11.5593 20.8367 11.6647 20.7313L15.3979 17.0004L11.6647 13.2695C11.4519 13.0567 11.3323 12.768 11.3323 12.4671C11.3323 12.1661 11.4519 11.8775 11.6647 11.6647C11.8775 11.4519 12.1661 11.3323 12.4671 11.3323C12.768 11.3323 13.0567 11.4519 13.2695 11.6647L17.0004 15.3979L20.7313 11.6647C20.8366 11.5591 20.9617 11.4754 21.0994 11.4183C21.2371 11.3611 21.3847 11.3317 21.5337 11.3317C21.6828 11.3317 21.8304 11.3611 21.9681 11.4183C22.1058 11.4754 22.2309 11.5614 22.3361 11.6669Z" fill="black"/>
</svg>
