<svg width="28" height="30" viewBox="0 0 28 30" fill="none" xmlns="http://www.w3.org/2000/svg">
<path fill-rule="evenodd" clip-rule="evenodd" d="M10.1044 4.72786C10.1044 2.57626 11.8487 0.832031 14.0003 0.832031C16.1519 0.832031 17.8961 2.57626 17.8961 4.72786V4.96254C21.2748 5.37372 24.4313 6.31166 27.2157 7.66857C27.7432 7.92564 27.9624 8.56165 27.7054 9.08915C27.4483 9.61665 26.8123 9.83588 26.2848 9.57882C22.755 7.85866 18.5396 6.85287 14.0002 6.85287C9.46087 6.85287 5.24551 7.85866 1.71569 9.57882C1.18819 9.83588 0.55218 9.61665 0.295118 9.08915C0.0380555 8.56165 0.257289 7.92564 0.784788 7.66857C3.56923 6.31166 6.7257 5.37372 10.1044 4.96253V4.72786ZM22.8762 23.8997C22.6644 26.8651 20.1969 29.1626 17.224 29.1626H10.7766C7.80369 29.1626 5.33619 26.8651 5.12438 23.8997L4.14939 10.2499C7.14893 9.20396 10.4852 8.62093 14.0003 8.62093C17.5154 8.62093 20.8517 9.20396 23.8512 10.2499L22.8762 23.8997ZM12.2295 13.5793C12.2295 12.9925 11.7538 12.5168 11.167 12.5168C10.5802 12.5168 10.1045 12.9925 10.1045 13.5793V22.0793C10.1045 22.6661 10.5802 23.1418 11.167 23.1418C11.7538 23.1418 12.2295 22.6661 12.2295 22.0793V13.5793ZM16.8336 12.5168C17.4204 12.5168 17.8961 12.9925 17.8961 13.5793V22.0793C17.8961 22.6661 17.4204 23.1418 16.8336 23.1418C16.2468 23.1418 15.7711 22.6661 15.7711 22.0793V13.5793C15.7711 12.9925 16.2468 12.5168 16.8336 12.5168Z" fill="#809CBC"/>
</svg>
