<svg width="28" height="28" viewBox="0 0 28 28" fill="none" xmlns="http://www.w3.org/2000/svg">
<path fill-rule="evenodd" clip-rule="evenodd" d="M2.38372 6.46512C2.38372 4.21102 4.21102 2.38372 6.46512 2.38372H14C14.5202 2.38372 14.9419 1.96204 14.9419 1.44186C14.9419 0.921685 14.5202 0.5 14 0.5H6.46512C3.17067 0.5 0.5 3.17067 0.5 6.46512V21.5349C0.5 24.8293 3.17067 27.5 6.46512 27.5H21.5349C24.8293 27.5 27.5 24.8293 27.5 21.5349V14C27.5 13.4798 27.0783 13.0581 26.5581 13.0581C26.038 13.0581 25.6163 13.4798 25.6163 14V21.5349C25.6163 23.789 23.789 25.6163 21.5349 25.6163H6.46512C4.21102 25.6163 2.38372 23.789 2.38372 21.5349V6.46512ZM19.5492 2.29215C20.6829 1.15843 22.5211 1.15843 23.6548 2.29215L25.7076 4.34494C26.8413 5.47866 26.8413 7.31679 25.7076 8.45051L23.8875 10.2706C23.7446 10.1998 23.5943 10.1233 23.4384 10.0413C22.3893 9.48894 21.1443 8.71374 20.2152 7.78459C19.286 6.85545 18.5108 5.61047 17.9585 4.56134C17.8764 4.40545 17.7999 4.2551 17.7291 4.11221L19.5492 2.29215ZM18.8832 9.11658C19.9827 10.2161 21.3809 11.0814 22.4883 11.6697L15.3309 18.8271C14.8868 19.2713 14.3105 19.5594 13.6887 19.6483L9.37785 20.2641C8.41988 20.4009 7.59877 19.5798 7.73562 18.6219L8.35145 14.311C8.44029 13.6892 8.72841 13.1129 9.17257 12.6688L16.33 5.51136C16.9183 6.61876 17.7837 8.01708 18.8832 9.11658Z" fill="#809CBC"/>
</svg>
