<svg width="25" height="25" viewBox="0 0 25 25" fill="none" xmlns="http://www.w3.org/2000/svg">
<path d="M15.0921 7.83724C15.0921 9.50272 13.742 10.8529 12.0765 10.8529V12.8633C14.8523 12.8633 17.1025 10.613 17.1025 7.83724H15.0921ZM12.0765 10.8529C10.411 10.8529 9.06087 9.50272 9.06087 7.83724H7.05046C7.05046 10.613 9.30069 12.8633 12.0765 12.8633V10.8529ZM9.06087 7.83724C9.06087 6.17176 10.411 4.82161 12.0765 4.82161V2.8112C9.30069 2.8112 7.05046 5.06143 7.05046 7.83724H9.06087ZM12.0765 4.82161C13.742 4.82161 15.0921 6.17176 15.0921 7.83724H17.1025C17.1025 5.06143 14.8523 2.8112 12.0765 2.8112V4.82161ZM18.1077 18.3919C18.1077 18.7776 17.769 19.3974 16.6025 19.9806C15.4961 20.5338 13.8973 20.9049 12.0765 20.9049V22.9154C14.1418 22.9154 16.0612 22.4989 17.5016 21.7788C18.8818 21.0887 20.1182 19.9493 20.1182 18.3919H18.1077ZM12.0765 20.9049C10.2556 20.9049 8.65688 20.5338 7.55051 19.9806C6.38402 19.3974 6.04525 18.7776 6.04525 18.3919H4.03483C4.03483 19.9493 5.27122 21.0887 6.65143 21.7788C8.09176 22.4989 10.0112 22.9154 12.0765 22.9154V20.9049ZM6.04525 18.3919C6.04525 18.0063 6.38402 17.3865 7.55051 16.8032C8.65688 16.2501 10.2556 15.8789 12.0765 15.8789V13.8685C10.0112 13.8685 8.09176 14.2849 6.65143 15.0051C5.27122 15.6952 4.03483 16.8345 4.03483 18.3919H6.04525ZM12.0765 15.8789C13.8973 15.8789 15.4961 16.2501 16.6025 16.8032C17.769 17.3865 18.1077 18.0063 18.1077 18.3919H20.1182C20.1182 16.8345 18.8818 15.6952 17.5016 15.0051C16.0612 14.2849 14.1418 13.8685 12.0765 13.8685V15.8789Z" fill="#9CA3AF"/>
</svg>
