<svg width="34" height="32" viewBox="0 0 34 32" fill="none" xmlns="http://www.w3.org/2000/svg">
<mask id="mask0_153_1901" style="mask-type:luminance" maskUnits="userSpaceOnUse" x="0" y="0" width="34" height="32">
<path d="M12.9518 29.5778C10.6087 28.8782 8.48661 27.5838 6.79215 25.8207C7.33734 25.1741 7.67719 24.3795 7.76823 23.5387C7.85926 22.6978 7.69734 21.8489 7.30317 21.1006C6.90901 20.3523 6.30053 19.7386 5.55561 19.338C4.81068 18.9375 3.96319 18.7683 3.12157 18.8522C2.92984 17.913 2.83349 16.9568 2.83399 15.9983C2.83399 14.5179 3.06065 13.0899 3.48282 11.7483H3.54232C4.26465 11.7485 4.97511 11.5646 5.60664 11.214C6.23816 10.8634 6.7699 10.3576 7.15165 9.74441C7.5334 9.1312 7.75256 8.43081 7.78844 7.70938C7.82431 6.98794 7.67572 6.26927 7.35669 5.62121C9.01745 4.07479 11.0259 2.95067 13.2125 2.34375C13.5683 3.04245 14.1105 3.62909 14.7791 4.03876C15.4477 4.44843 16.2166 4.66515 17.0007 4.66496C17.7848 4.66515 18.5536 4.44843 19.2222 4.03876C19.8908 3.62909 20.433 3.04245 20.7888 2.34375C22.9754 2.95067 24.9839 4.07479 26.6446 5.62121C26.3233 6.2738 26.1748 6.99796 26.2134 7.72436C26.252 8.45076 26.4764 9.15509 26.8652 9.76993C27.2539 10.3848 27.794 10.8896 28.4336 11.2359C29.0733 11.5823 29.7911 11.7587 30.5185 11.7483C30.9498 13.1237 31.1686 14.5569 31.1673 15.9983C31.1673 16.9758 31.0682 17.9306 30.8797 18.8529C30.0381 18.769 29.1906 18.9382 28.4457 19.3387C27.7008 19.7393 27.0923 20.353 26.6981 21.1013C26.304 21.8496 26.142 22.6985 26.2331 23.5394C26.3241 24.3803 26.664 25.1748 27.2092 25.8215C25.5146 27.5843 23.3925 28.8784 21.0495 29.5778C20.7743 28.7202 20.234 27.9721 19.5063 27.4414C18.7787 26.9106 17.9013 26.6247 17.0007 26.6247C16.1 26.6247 15.2226 26.9106 14.495 27.4414C13.7673 27.9721 13.227 28.7202 12.9518 29.5778Z" fill="white" stroke="white" stroke-width="4" stroke-linejoin="round"/>
<path d="M17.0013 20.9557C17.6524 20.9557 18.2972 20.8275 18.8988 20.5783C19.5003 20.3291 20.0469 19.9639 20.5074 19.5035C20.9678 19.043 21.333 18.4964 21.5822 17.8949C21.8314 17.2933 21.9596 16.6485 21.9596 15.9974C21.9596 15.3463 21.8314 14.7015 21.5822 14.0999C21.333 13.4984 20.9678 12.9517 20.5074 12.4913C20.0469 12.0309 19.5003 11.6657 18.8988 11.4165C18.2972 11.1673 17.6524 11.0391 17.0013 11.0391C15.6863 11.0391 14.4251 11.5615 13.4952 12.4913C12.5654 13.4212 12.043 14.6824 12.043 15.9974C12.043 17.3124 12.5654 18.5736 13.4952 19.5035C14.4251 20.4333 15.6863 20.9557 17.0013 20.9557Z" fill="black" stroke="black" stroke-width="4" stroke-linejoin="round"/>
</mask>
<g mask="url(#mask0_153_1901)">
<path d="M0 -1H34V33H0V-1Z" fill="white"/>
</g>
</svg>
