<svg width="24" height="25" viewBox="0 0 24 25" fill="none" xmlns="http://www.w3.org/2000/svg">
<path d="M12 12.5C14.7614 12.5 17 10.2614 17 7.5C17 4.73858 14.7614 2.5 12 2.5C9.23858 2.5 7 4.73858 7 7.5C7 10.2614 9.23858 12.5 12 12.5Z" stroke="#1C2A3A" stroke-width="1.5" stroke-linecap="round" stroke-linejoin="round"/>
<path d="M19.2101 16.241L15.67 19.781C15.53 19.921 15.4 20.181 15.37 20.371L15.18 21.721C15.11 22.211 15.45 22.551 15.94 22.481L17.29 22.291C17.48 22.261 17.75 22.131 17.88 21.991L21.42 18.451C22.03 17.841 22.32 17.131 21.42 16.231C20.53 15.341 19.8201 15.631 19.2101 16.241Z" stroke="#1C2A3A" stroke-width="1.5" stroke-miterlimit="10" stroke-linecap="round" stroke-linejoin="round"/>
<path d="M18.7002 16.75C19.0002 17.83 19.8402 18.67 20.9202 18.97" stroke="#1C2A3A" stroke-width="1.5" stroke-miterlimit="10" stroke-linecap="round" stroke-linejoin="round"/>
<path d="M3.41016 22.5C3.41016 18.63 7.26018 15.5 12.0002 15.5C13.0402 15.5 14.0402 15.65 14.9702 15.93" stroke="#1C2A3A" stroke-width="1.5" stroke-linecap="round" stroke-linejoin="round"/>
</svg>
