<svg width="45" height="44" viewBox="0 0 45 44" fill="none" xmlns="http://www.w3.org/2000/svg">
<rect x="0.327148" width="44" height="44" rx="22" fill="#F3F4F6"/>
<path d="M33.93 24.9204L32.3292 22.2571C31.975 21.6762 31.6634 20.5571 31.6634 19.8771V17.2279C31.6634 12.0854 27.4842 7.90625 22.3559 7.90625C17.2134 7.92042 13.0342 12.0854 13.0342 17.2279V19.8629C13.0342 20.5429 12.7225 21.6621 12.3825 22.2429L10.7817 24.9062C10.1725 25.9404 10.0309 27.1162 10.4134 28.1362C10.7959 29.1704 11.66 29.9921 12.7934 30.3604C14.3234 30.8704 15.8675 31.2387 17.44 31.5079C17.5959 31.5362 17.7517 31.5504 17.9075 31.5788C18.1059 31.6071 18.3183 31.6354 18.5308 31.6637C18.8992 31.7204 19.2675 31.7629 19.65 31.7913C20.5425 31.8762 21.4492 31.9188 22.3559 31.9188C23.2484 31.9188 24.1409 31.8762 25.0192 31.7913C25.345 31.7629 25.6709 31.7346 25.9825 31.6921C26.2375 31.6637 26.4925 31.6354 26.7475 31.5929C26.9034 31.5788 27.0592 31.5504 27.215 31.5221C28.8017 31.2671 30.3742 30.8704 31.9042 30.3604C32.995 29.9921 33.8308 29.1704 34.2275 28.1221C34.6242 27.0596 34.5108 25.8979 33.93 24.9204ZM23.39 19.1687C23.39 19.7637 22.9083 20.2454 22.3134 20.2454C21.7184 20.2454 21.2367 19.7637 21.2367 19.1687V14.7771C21.2367 14.1821 21.7184 13.7004 22.3134 13.7004C22.9083 13.7004 23.39 14.1821 23.39 14.7771V19.1687Z" fill="#4B5563"/>
<path d="M26.3362 33.3462C25.7412 34.9895 24.1687 36.1654 22.327 36.1654C21.2079 36.1654 20.1029 35.712 19.3237 34.9045C18.8704 34.4795 18.5304 33.9129 18.332 33.332C18.5162 33.3604 18.7004 33.3745 18.8987 33.4029C19.2245 33.4454 19.5645 33.4879 19.9045 33.5162C20.712 33.587 21.5337 33.6295 22.3554 33.6295C23.1629 33.6295 23.9704 33.587 24.7637 33.5162C25.0612 33.4879 25.3587 33.4737 25.642 33.4312C25.8687 33.4029 26.0954 33.3745 26.3362 33.3462Z" fill="#4B5563"/>
<circle cx="22.8271" cy="10.5" r="2.35" fill="#EF0000" stroke="white" stroke-width="0.3"/>
</svg>
