<svg width="42" height="42" viewBox="0 0 42 42" fill="none" xmlns="http://www.w3.org/2000/svg">
<path d="M10.7773 17.2746V13.8807C10.7773 8.26394 12.4743 3.69922 20.9589 3.69922C29.4435 3.69922 31.1404 8.26394 31.1404 13.8807V17.2746" stroke="#9CA3AF" stroke-width="3.39384" stroke-linecap="round" stroke-linejoin="round"/>
<path d="M20.9591 31.6994C23.3021 31.6994 25.2014 29.8001 25.2014 27.4571C25.2014 25.1142 23.3021 23.2148 20.9591 23.2148C18.6161 23.2148 16.7168 25.1142 16.7168 27.4571C16.7168 29.8001 18.6161 31.6994 20.9591 31.6994Z" stroke="#9CA3AF" stroke-width="3.39384" stroke-linecap="round" stroke-linejoin="round"/>
<path d="M29.4431 37.6365H12.4739C5.68618 37.6365 3.98926 35.9396 3.98926 29.1519V25.758C3.98926 18.9704 5.68618 17.2734 12.4739 17.2734H29.4431C36.2308 17.2734 37.9277 18.9704 37.9277 25.758V29.1519C37.9277 35.9396 36.2308 37.6365 29.4431 37.6365Z" stroke="#9CA3AF" stroke-width="3.39384" stroke-linecap="round" stroke-linejoin="round"/>
</svg>
